<svg width="14" height="12" viewBox="0 0 14 12" fill="none" xmlns="http://www.w3.org/2000/svg">
<path d="M5.86014 0.558379C5.94279 0.390781 6.07069 0.249658 6.22938 0.150979C6.38807 0.0522985 6.57121 0 6.75808 0C6.94495 0 7.12809 0.0522985 7.28678 0.150979C7.44547 0.249658 7.57337 0.390781 7.65602 0.558379L9.04767 3.37923L12.1589 3.82977C12.3438 3.85662 12.5176 3.93471 12.6604 4.05519C12.8033 4.17567 12.9096 4.33374 12.9673 4.5115C13.025 4.68927 13.0318 4.87963 12.9869 5.06105C12.942 5.24247 12.8472 5.4077 12.7133 5.53804L10.4619 7.7319L10.9937 10.8306C11.0251 11.0145 11.0044 11.2036 10.934 11.3765C10.8636 11.5493 10.7463 11.699 10.5954 11.8087C10.4444 11.9184 10.2658 11.9838 10.0796 11.9973C9.89352 12.0109 9.7073 11.9722 9.54201 11.8856L6.75745 10.4226L3.97415 11.8856C3.80885 11.9722 3.62264 12.0109 3.43651 11.9973C3.25039 11.9838 3.07176 11.9184 2.92079 11.8087C2.76983 11.699 2.65253 11.5493 2.58214 11.3765C2.51175 11.2036 2.49106 11.0145 2.52242 10.8306L3.05305 7.7319L0.801626 5.53679C0.668039 5.40632 0.573604 5.24108 0.528992 5.05975C0.484379 4.87842 0.491368 4.68823 0.549168 4.51066C0.606968 4.3331 0.713275 4.17524 0.856079 4.05491C0.998882 3.93459 1.17249 3.85661 1.35729 3.82977L4.46848 3.37798L5.85888 0.558379H5.86014Z" fill="#FF3B2F"/>
</svg>
