<svg width="13" height="12" viewBox="0 0 13 12" fill="none" xmlns="http://www.w3.org/2000/svg">
<path d="M4.41692 3.59911L5.66981 1.05838H5.67106L5.80857 0.779521C5.84995 0.695623 5.91398 0.624978 5.99341 0.575579C6.07285 0.526181 6.16453 0.5 6.25808 0.5C6.35162 0.5 6.4433 0.52618 6.52274 0.575579C6.60218 0.624978 6.66621 0.695623 6.70758 0.779521L6.70762 0.779596L8.09927 3.60045L8.21566 3.83637L8.47602 3.87407L11.587 4.32458C11.5871 4.32458 11.5871 4.32459 11.5872 4.3246C11.6797 4.33808 11.7666 4.37715 11.8381 4.43742C11.9096 4.49774 11.9628 4.57686 11.9917 4.66585C12.0206 4.75483 12.024 4.85013 12.0015 4.94095C11.979 5.03177 11.9316 5.11448 11.8646 5.17973L11.8643 5.17994L9.61291 7.3738L9.42457 7.55732L9.46906 7.81649L10.0008 10.9146C10.0165 11.0067 10.0062 11.1013 9.97095 11.1879C9.93571 11.2744 9.87699 11.3493 9.80142 11.4042C9.72585 11.4592 9.63643 11.4919 9.54326 11.4987C9.45008 11.5055 9.35686 11.4861 9.27412 11.4427L6.49001 9.97997L6.2574 9.85776L6.02482 9.98001L3.24204 11.4427C3.15929 11.4861 3.06608 11.5055 2.9729 11.4987C2.87973 11.4919 2.79031 11.4592 2.71473 11.4042C2.63916 11.3493 2.58044 11.2744 2.54521 11.1879C2.50999 11.1014 2.49963 11.0068 2.51529 10.9148C2.51529 10.9147 2.5153 10.9146 2.51531 10.9146L3.04588 7.81629L3.09023 7.55732L2.9021 7.3739L0.650993 5.1791C0.650965 5.17907 0.650937 5.17905 0.650909 5.17902C0.58408 5.11372 0.536836 5.03103 0.514513 4.9403C0.49218 4.84952 0.495679 4.75432 0.524613 4.66543C0.553547 4.57654 0.606764 4.49751 0.678251 4.43728C0.749734 4.37705 0.836637 4.33801 0.929139 4.32458C0.929144 4.32458 0.929148 4.32457 0.929153 4.32457L4.04034 3.87279L4.30061 3.83499L4.41692 3.59911Z" stroke="#FF3B2F"/>
<path d="M5.72938 0.150979C5.57069 0.249658 5.44279 0.390781 5.36014 0.558379L3.96848 3.37798L0.857286 3.82977C0.67249 3.85661 0.498882 3.93459 0.356079 4.05491C0.213275 4.17524 0.106968 4.3331 0.0491679 4.51066C-0.0086319 4.68823 -0.0156205 4.87842 0.0289916 5.05975C0.0736038 5.24108 0.168039 5.40632 0.301626 5.53679L2.55305 7.7319L2.02242 10.8306C1.99106 11.0145 2.01175 11.2036 2.08214 11.3765C2.15253 11.5493 2.26983 11.699 2.42079 11.8087C2.57176 11.9184 2.75039 11.9838 2.93651 11.9973C3.12264 12.0109 3.30885 11.9722 3.47415 11.8856L6.25745 10.4226L6.25808 0C6.07121 0 5.88807 0.0522985 5.72938 0.150979Z" fill="#FF3B2F"/>
</svg>
